<svg version="1.1" xmlns="http://www.w3.org/2000/svg" viewBox="0 0 7552.698524405496 1275.8397688020118" width="15105.397048810992" height="2551.6795376040236" filter="invert(93%) hue-rotate(180deg)">
  <!-- svg-source:excalidraw -->
  
  <defs>
    <style class="style-fonts">
      @font-face {
        font-family: "Virgil";
        src: url("https://excalidraw.com/Virgil.woff2");
      }
      @font-face {
        font-family: "Cascadia";
        src: url("https://excalidraw.com/Cascadia.woff2");
      }
      @font-face {
        font-family: "Assistant";
        src: url("https://excalidraw.com/Assistant-Regular.woff2");
      }
    </style>
    <clipPath id="gS8ksGNsznpTNq_xVP7XA">
            <rect transform="translate(0 0) rotate(0 3776.349262202748 637.9198844010059)" width="7552.698524405496" height="1275.8397688020118">
          </rect>
        </clipPath>
  </defs>
  <rect x="0" y="0" width="7552.698524405496" height="1275.8397688020118" fill="#ffffff"></rect><g clip-path="url(#gS8ksGNsznpTNq_xVP7XA)"><g stroke-linecap="round" transform="translate(236.48378841722752 766.5965084638001) rotate(0 34.849998474121094 21.900001525878906)"><path d="M10.95 0 C25.16 -0.17, 39.15 0.26, 58.75 0 M10.95 0 C27.13 -0.38, 43.44 -0.47, 58.75 0 M58.75 0 C68.02 -1.97, 68.19 3.21, 69.7 10.95 M58.75 0 C68.21 1.8, 69.28 4.68, 69.7 10.95 M69.7 10.95 C70.1 18.34, 68.29 26.94, 69.7 32.85 M69.7 10.95 C69.64 18.74, 69.03 29.01, 69.7 32.85 M69.7 32.85 C71.7 38.62, 64.87 43.75, 58.75 43.8 M69.7 32.85 C71.41 38.85, 64.1 44.84, 58.75 43.8 M58.75 43.8 C40.98 43.71, 22.42 42.14, 10.95 43.8 M58.75 43.8 C46.1 44.02, 34.66 43.54, 10.95 43.8 M10.95 43.8 C3.1 45.3, -1.39 41.85, 0 32.85 M10.95 43.8 C1.98 41.78, -1.63 39.45, 0 32.85 M0 32.85 C-1.58 26.43, 1.8 17.72, 0 10.95 M0 32.85 C0.24 25.55, -0.55 19.56, 0 10.95 M0 10.95 C0.24 4.97, 2.42 0.65, 10.95 0 M0 10.95 C1.92 4.14, 5.45 1.42, 10.95 0" stroke="#1e1e1e" stroke-width="2" fill="none"></path></g></g><g clip-path="url(#gS8ksGNsznpTNq_xVP7XA)"><g stroke-linecap="round" transform="translate(356.18377773607517 523.7631802167298) rotate(0 264.73333740234375 264.73333740234375)"><path d="M265 0 C344.73 79, 422.99 158.64, 529.47 265 M265 0 C368.6 102.48, 470.97 204.47, 529.47 265 M529.47 265 C470.67 325.69, 410.87 385.69, 265 529.47 M529.47 265 C424.44 369.2, 320.31 474.8, 265 529.47 M265 529.47 C182.64 446.04, 102.08 365.66, 0 265 M265 529.47 C207.21 470.01, 147.05 411.56, 0 265 M0 265 C101.7 162.84, 203.31 60.14, 265 0 M0 265 C67.71 198.2, 135.4 130.64, 265 0" stroke="#1e1e1e" stroke-width="2" fill="none"></path></g></g><g clip-path="url(#gS8ksGNsznpTNq_xVP7XA)"><g stroke-linecap="round" transform="translate(935.6504601701572 663.8631786908509) rotate(0 124.63333129882812 124.63333129882812)"><path d="M125 0 C162.44 38, 199.75 73.42, 249.27 125 M125 0 C164.88 37, 200.84 75.69, 249.27 125 M249.27 125 C202.18 174.35, 154.23 222.02, 125 249.27 M249.27 125 C211.61 163.41, 172.49 200.21, 125 249.27 M125 249.27 C91.3 214.15, 51.56 174.73, 0 125 M125 249.27 C86.05 212.05, 50.55 174.88, 0 125 M0 125 C39.92 83.45, 78.53 44.34, 125 0 M0 125 C36.2 89.06, 71.13 54.62, 125 0" stroke="#1e1e1e" stroke-width="2" fill="none"></path></g></g><g clip-path="url(#gS8ksGNsznpTNq_xVP7XA)"><g stroke-linecap="round" transform="translate(1234.9171227678135 766.5965084638001) rotate(0 197.4666748046875 29)"><path d="M14.5 0 C129.91 -1.51, 243.2 -0.83, 380.43 0 M14.5 0 C121.78 2.11, 230.59 2.74, 380.43 0 M380.43 0 C389.73 0.9, 395.56 6.74, 394.93 14.5 M380.43 0 C389.34 0.22, 395.09 2.97, 394.93 14.5 M394.93 14.5 C393.67 25.19, 393.59 34.82, 394.93 43.5 M394.93 14.5 C394.63 25.71, 395.97 36.41, 394.93 43.5 M394.93 43.5 C393.24 54.07, 391.78 58.49, 380.43 58 M394.93 43.5 C395.38 53.84, 389.89 58.43, 380.43 58 M380.43 58 C302.5 56.26, 225.37 57.13, 14.5 58 M380.43 58 C276.89 60.24, 173.75 59.17, 14.5 58 M14.5 58 C3.42 57.39, 0.93 52.58, 0 43.5 M14.5 58 C3.56 56.11, 1.34 55.17, 0 43.5 M0 43.5 C-2 35.15, -0.7 24.81, 0 14.5 M0 43.5 C-0.65 33.2, 0.8 22.46, 0 14.5 M0 14.5 C1.57 6.07, 5.53 -1.05, 14.5 0 M0 14.5 C-0.96 5.33, 3.91 -0.79, 14.5 0" stroke="#1e1e1e" stroke-width="2" fill="none"></path></g></g><g clip-path="url(#gS8ksGNsznpTNq_xVP7XA)"><g stroke-linecap="round" transform="translate(1679.8504723771885 766.5965084638001) rotate(0 81.69166564941406 21.900001525878906)"><path d="M0 0 C63.58 1.25, 126.92 1.3, 163.38 0 M0 0 C33.83 1.15, 65.61 0.81, 163.38 0 M163.38 0 C164 14.64, 162.18 30.5, 163.38 43.8 M163.38 0 C163.35 16.38, 162.74 35.25, 163.38 43.8 M163.38 43.8 C97.99 44.32, 31.57 41.14, 0 43.8 M163.38 43.8 C107.18 44.49, 50.5 44.39, 0 43.8 M0 43.8 C-0.14 33.45, 0.8 25.54, 0 0 M0 43.8 C-0.57 32.31, -0.61 18.24, 0 0" stroke="#1e1e1e" stroke-width="2" fill="none"></path></g></g><g clip-path="url(#gS8ksGNsznpTNq_xVP7XA)"><g stroke-linecap="round" transform="translate(1893.2338036760166 766.5965084638001) rotate(0 77.80000305175781 29)"><path d="M0 0 C52.94 0.48, 104.13 -3, 155.6 0 M0 0 C43.05 -0.77, 86.79 -0.27, 155.6 0 M155.6 0 C154.04 16.97, 157.5 31.2, 155.6 58 M155.6 0 C154.85 13.83, 156.55 25.15, 155.6 58 M155.6 58 C116.99 57.46, 81.55 60.84, 0 58 M155.6 58 C104.99 58.64, 53.68 57.99, 0 58 M0 58 C0.7 43.72, -0.27 28.2, 0 0 M0 58 C-0.33 35.36, -0.31 14.18, 0 0" stroke="#1e1e1e" stroke-width="2" fill="none"></path></g></g><g clip-path="url(#gS8ksGNsznpTNq_xVP7XA)"><g stroke-linecap="round" transform="translate(2098.833809779532 766.5965084638001) rotate(0 219.70834350585938 21.900001525878906)"><path d="M10.95 0 C175.12 -3.02, 341.18 -1.2, 428.47 0 M10.95 0 C169.09 -0.5, 326.72 -0.96, 428.47 0 M428.47 0 C435.9 -1.62, 440.91 5.5, 439.42 10.95 M428.47 0 C436.04 -1.76, 439.22 1.79, 439.42 10.95 M439.42 10.95 C438.08 14.81, 439.56 22.53, 439.42 32.85 M439.42 10.95 C440.07 16.53, 439.42 21.9, 439.42 32.85 M439.42 32.85 C439.24 40.52, 434.01 42.88, 428.47 43.8 M439.42 32.85 C438.32 39.76, 434.57 44.49, 428.47 43.8 M428.47 43.8 C296.76 42.44, 164.35 42.4, 10.95 43.8 M428.47 43.8 C340.13 42.96, 250.99 42.67, 10.95 43.8 M10.95 43.8 C4.81 45.54, 0.04 40.52, 0 32.85 M10.95 43.8 C3.3 41.56, 0.47 39.4, 0 32.85 M0 32.85 C1.17 26.33, 0.5 23.93, 0 10.95 M0 32.85 C0.18 25.29, -0.59 19, 0 10.95 M0 10.95 C-0.8 2.96, 5.03 -0.29, 10.95 0 M0 10.95 C1.06 3.67, 3.54 0.75, 10.95 0" stroke="#1e1e1e" stroke-width="2" fill="none"></path></g></g><g clip-path="url(#gS8ksGNsznpTNq_xVP7XA)"><g stroke-linecap="round" transform="translate(2588.250496791251 766.5965084638001) rotate(0 168.47500610351562 21.900001525878906)"><path d="M10.95 0 C136.12 3.01, 263.03 1.42, 326 0 M10.95 0 C119.4 -2.06, 228.37 -2.7, 326 0 M326 0 C334.79 1.85, 337.18 2.12, 336.95 10.95 M326 0 C333.11 -1.86, 335.35 5.66, 336.95 10.95 M336.95 10.95 C336.73 21.2, 335.65 26.77, 336.95 32.85 M336.95 10.95 C337.33 18.8, 337.04 26.26, 336.95 32.85 M336.95 32.85 C335.2 39.23, 332.34 43.46, 326 43.8 M336.95 32.85 C335.75 40.84, 333.7 43.38, 326 43.8 M326 43.8 C241.36 41.22, 153.06 41.25, 10.95 43.8 M326 43.8 C240.69 42.57, 156.58 43.77, 10.95 43.8 M10.95 43.8 C3.69 44.17, -0.3 38.2, 0 32.85 M10.95 43.8 C4.12 43.05, -1.34 41.68, 0 32.85 M0 32.85 C0.51 27.69, 0.28 20.75, 0 10.95 M0 32.85 C-0.49 25.14, -0.48 16.65, 0 10.95 M0 10.95 C1.38 3.36, 4.58 0.02, 10.95 0 M0 10.95 C-0.11 4.4, 3.08 -0.3, 10.95 0" stroke="#1e1e1e" stroke-width="2" fill="none"></path></g></g><g clip-path="url(#gS8ksGNsznpTNq_xVP7XA)"><g stroke-linecap="round" transform="translate(2975.200508998282 679.0048412885071) rotate(0 109.49166870117188 109.49166870117188)"><path d="M110 0 C135.8 23.31, 159.61 49.01, 218.98 110 M110 0 C152.78 42.57, 196.54 87.78, 218.98 110 M218.98 110 C182.56 142.49, 151.95 179.85, 110 218.98 M218.98 110 C194.74 133.75, 168.81 159.11, 110 218.98 M110 218.98 C68.08 177.18, 25.64 133.76, 0 110 M110 218.98 C82.08 191.44, 54.86 163.29, 0 110 M0 110 C30.85 79.33, 57.37 49.4, 110 0 M0 110 C28.59 79.85, 59.37 51.89, 110 0" stroke="#1e1e1e" stroke-width="2" fill="none"></path></g></g><g clip-path="url(#gS8ksGNsznpTNq_xVP7XA)"><g stroke-linecap="round" transform="translate(3640.4838341935947 719.6965069379212) rotate(0 261.0333251953125 21.900001525878906)"><path d="M10.95 0 C208.35 0.62, 405.8 0.1, 511.12 0 M10.95 0 C166.17 1.99, 320.84 1.31, 511.12 0 M511.12 0 C518.25 -1.61, 520.67 5.4, 522.07 10.95 M511.12 0 C520.71 -1.76, 520.71 3.59, 522.07 10.95 M522.07 10.95 C522.85 20.83, 522.44 27.73, 522.07 32.85 M522.07 10.95 C521.17 17.7, 521.57 25.2, 522.07 32.85 M522.07 32.85 C521.02 40.75, 518.76 43.44, 511.12 43.8 M522.07 32.85 C521.43 41.88, 516.82 45.76, 511.12 43.8 M511.12 43.8 C397.24 42.75, 283.62 41.94, 10.95 43.8 M511.12 43.8 C402.23 45.62, 293.27 45.15, 10.95 43.8 M10.95 43.8 C4.06 43.15, -1.17 41.48, 0 32.85 M10.95 43.8 C3.93 45.31, -1.41 40.9, 0 32.85 M0 32.85 C1.19 25.15, -1.09 15.22, 0 10.95 M0 32.85 C0.78 25.66, 0.55 18.77, 0 10.95 M0 10.95 C-0.1 4.3, 3.15 -0.26, 10.95 0 M0 10.95 C0.34 4.77, 1.86 1.44, 10.95 0" stroke="#1e1e1e" stroke-width="2" fill="none"></path></g></g><g clip-path="url(#gS8ksGNsznpTNq_xVP7XA)"><g stroke-linecap="round" transform="translate(3719.4004906877353 813.496509989679) rotate(0 182.11666870117188 29)"><path d="M14.5 0 C110.19 -1.15, 203.45 -0.61, 349.73 0 M14.5 0 C88.06 -2.61, 161.4 -2.63, 349.73 0 M349.73 0 C358.01 1.75, 366.23 3.3, 364.23 14.5 M349.73 0 C358.04 -0.06, 365.94 3.53, 364.23 14.5 M364.23 14.5 C364.86 21.13, 364.95 26.81, 364.23 43.5 M364.23 14.5 C363.5 23.57, 363.46 33.28, 364.23 43.5 M364.23 43.5 C364.58 52.8, 358.85 59.5, 349.73 58 M364.23 43.5 C362.64 55.12, 357.73 55.98, 349.73 58 M349.73 58 C272.52 58.3, 194.98 59.83, 14.5 58 M349.73 58 C219.89 57.77, 90.38 58.2, 14.5 58 M14.5 58 C3.67 59.33, 0.24 54.48, 0 43.5 M14.5 58 C3.42 58.75, 1.92 53.65, 0 43.5 M0 43.5 C-1.23 31.69, 0.26 20.75, 0 14.5 M0 43.5 C0.26 35.81, -0.25 28.43, 0 14.5 M0 14.5 C-0.5 4.58, 5.13 0.97, 14.5 0 M0 14.5 C-1.79 6.28, 7.12 -1.7, 14.5 0" stroke="#1e1e1e" stroke-width="2" fill="none"></path></g></g><g clip-path="url(#gS8ksGNsznpTNq_xVP7XA)"><g stroke-linecap="round" transform="translate(4212.550476954825 591.3465237225892) rotate(0 197.14999389648438 197.14999389648438)"><path d="M198 0 C264.6 66.17, 328.21 132.78, 394.3 198 M198 0 C275.14 78.22, 351.69 157.21, 394.3 198 M394.3 198 C314.6 276.76, 235.26 352.81, 198 394.3 M394.3 198 C327.96 266.36, 259.98 334.04, 198 394.3 M198 394.3 C156.38 351.08, 115.06 310.46, 0 198 M198 394.3 C142.09 340.78, 86.27 284.14, 0 198 M0 198 C45.39 151.08, 89.95 107.44, 198 0 M0 198 C76.48 120.34, 153.39 44.21, 198 0" stroke="#1e1e1e" stroke-width="2" fill="none"></path></g></g><g clip-path="url(#gS8ksGNsznpTNq_xVP7XA)"><g stroke-linecap="round" transform="translate(5062.600457118399 719.6965069379212) rotate(0 161.4250030517578 29)"><path d="M14.5 0 C91.74 0.96, 172.76 0.03, 308.35 0 M14.5 0 C79.63 2.41, 146.54 1.19, 308.35 0 M308.35 0 C316.83 -0.05, 324.34 3.7, 322.85 14.5 M308.35 0 C316.07 1.04, 324.78 5.4, 322.85 14.5 M322.85 14.5 C323.31 22.01, 322.01 32.06, 322.85 43.5 M322.85 14.5 C322.87 22.53, 322.42 31.67, 322.85 43.5 M322.85 43.5 C321.46 54.87, 316.56 56.24, 308.35 58 M322.85 43.5 C321.22 52.47, 319.08 57.33, 308.35 58 M308.35 58 C237.75 59.3, 164.84 59.05, 14.5 58 M308.35 58 C248.34 57.78, 189.29 57.78, 14.5 58 M14.5 58 C3.6 58.65, 1.67 53.59, 0 43.5 M14.5 58 C6.64 59.42, 0.8 51.96, 0 43.5 M0 43.5 C-0.75 37.39, -0.35 29.44, 0 14.5 M0 43.5 C-0.23 34.64, 0.16 26.52, 0 14.5 M0 14.5 C-1.56 6.09, 6.82 -1.48, 14.5 0 M0 14.5 C-1.03 4.21, 2.89 -0.85, 14.5 0" stroke="#1e1e1e" stroke-width="2" fill="none"></path></g></g><g clip-path="url(#gS8ksGNsznpTNq_xVP7XA)"><g stroke-linecap="round" transform="translate(4993.400460170157 813.496509989679) rotate(0 230.625 21.900001525878906)"><path d="M10.95 0 C146.68 -1.52, 279.79 -1.72, 450.3 0 M10.95 0 C107.82 -2.31, 203.39 -1.94, 450.3 0 M450.3 0 C459.09 -1.13, 459.56 4.55, 461.25 10.95 M450.3 0 C459.53 0.57, 461.69 4.32, 461.25 10.95 M461.25 10.95 C460.37 16.37, 460.95 22.65, 461.25 32.85 M461.25 10.95 C461.01 18.93, 460.59 26.26, 461.25 32.85 M461.25 32.85 C459.79 38.39, 456.18 43.19, 450.3 43.8 M461.25 32.85 C462.32 39.48, 456.33 41.91, 450.3 43.8 M450.3 43.8 C293.09 43.69, 134.54 44.05, 10.95 43.8 M450.3 43.8 C332.84 45.59, 214.95 45.42, 10.95 43.8 M10.95 43.8 C5.32 44.22, 1.57 41.39, 0 32.85 M10.95 43.8 C4.45 42.6, -0.96 40.65, 0 32.85 M0 32.85 C-0.22 28.08, 0.1 21.37, 0 10.95 M0 32.85 C0.2 26.06, -0.73 18.92, 0 10.95 M0 10.95 C1.99 2.17, 2.76 -0.54, 10.95 0 M0 10.95 C-1.94 2.8, 4.52 1.59, 10.95 0" stroke="#1e1e1e" stroke-width="2" fill="none"></path></g></g><g clip-path="url(#gS8ksGNsznpTNq_xVP7XA)"><g stroke-linecap="round" transform="translate(5504.650452540763 517.8548550214173) rotate(0 270.64166259765625 270.64166259765625)"><path d="M271 0 C372.78 101.18, 473.93 201.92, 541.28 271 M271 0 C377.01 106.25, 482.56 210.95, 541.28 271 M541.28 271 C484.13 330.76, 426 388.61, 271 541.28 M541.28 271 C453.46 356.28, 367.31 442.69, 271 541.28 M271 541.28 C186.18 454.23, 100.28 368.4, 0 271 M271 541.28 C214.91 483.27, 156.81 425.6, 0 271 M0 271 C95.9 173.7, 191.61 77.04, 271 0 M0 271 C73.5 197.83, 145.55 125.14, 271 0" stroke="#1e1e1e" stroke-width="2" fill="none"></path></g></g><g clip-path="url(#gS8ksGNsznpTNq_xVP7XA)"><g stroke-linecap="round" transform="translate(6095.933777736075 595.7048611249329) rotate(0 192.79165649414062 192.79165649414062)"><path d="M193 0 C250.63 59.2, 313.28 122.01, 385.58 193 M193 0 C235.71 42.71, 277.48 86.61, 385.58 193 M385.58 193 C312.47 267.09, 238.37 339.8, 193 385.58 M385.58 193 C335.58 241.86, 287.24 290.36, 193 385.58 M193 385.58 C140.61 330.93, 85.32 278.48, 0 193 M193 385.58 C139.85 332.6, 88.72 282.01, 0 193 M0 193 C56.52 135.23, 115.84 75.69, 193 0 M0 193 C70.05 121.56, 141.89 50.76, 193 0" stroke="#1e1e1e" stroke-width="2" fill="none"></path></g></g><g clip-path="url(#gS8ksGNsznpTNq_xVP7XA)"><g stroke-linecap="round" transform="translate(6531.517098353751 766.5965084638001) rotate(0 422.2583312988281 29)"><path d="M0 0 C246.99 3.15, 491.96 1.88, 844.52 0 M0 0 C250.87 2.09, 502.74 2.01, 844.52 0 M844.52 0 C845.06 16.77, 843.76 36.08, 844.52 58 M844.52 0 C844.39 16.23, 843.94 33.58, 844.52 58 M844.52 58 C649.14 54.97, 454.93 55.91, 0 58 M844.52 58 C616 55.57, 387.02 55.29, 0 58 M0 58 C-0.09 40.32, 1.89 25.21, 0 0 M0 58 C1.19 37, 1.14 16.19, 0 0" stroke="#1e1e1e" stroke-width="2" fill="none"></path></g></g><g clip-path="url(#gS8ksGNsznpTNq_xVP7XA)"><g stroke-linecap="round"><g transform="translate(306.68378841722733 788.9968473920226) rotate(0 24.75 -0.25)"><path d="M1.2 -0.92 C9.47 -1.18, 40.59 -0.49, 48.79 -0.53 M0.37 1.21 C9.1 1.67, 42.84 1.23, 51.13 0.99" stroke="#1e1e1e" stroke-width="2" fill="none"></path></g><g transform="translate(306.68378841722733 788.9968473920226) rotate(0 24.75 -0.25)"><path d="M28.03 9.88 C31.74 6.42, 38.54 7.04, 51.13 0.99 M28.03 9.88 C34.57 7.86, 39.54 5.74, 51.13 0.99" stroke="#1e1e1e" stroke-width="2" fill="none"></path></g><g transform="translate(306.68378841722733 788.9968473920226) rotate(0 24.75 -0.25)"><path d="M27.72 -7.04 C31.65 -6.61, 38.52 -2.09, 51.13 0.99 M27.72 -7.04 C34.19 -4.95, 39.24 -2.95, 51.13 0.99" stroke="#1e1e1e" stroke-width="2" fill="none"></path></g></g><mask></mask></g><g clip-path="url(#gS8ksGNsznpTNq_xVP7XA)"><g stroke-linecap="round"><g transform="translate(886.6507884172274 789.4968473920226) rotate(0 24.5 -0.5)"><path d="M-0.71 -0.03 C3.24 -0.16, 16.78 -1.61, 24.89 -1.68 C33.01 -1.75, 43.8 -0.62, 47.98 -0.46 M1.12 -1.09 C4.88 -0.99, 16.21 -0.26, 24.41 -0.5 C32.62 -0.74, 45.95 -2.69, 50.34 -2.52" stroke="#1e1e1e" stroke-width="2" fill="none"></path></g><g transform="translate(886.6507884172274 789.4968473920226) rotate(0 24.5 -0.5)"><path d="M38.84 2.37 C43.44 1.41, 47.37 -2.53, 50.34 -2.52 M38.84 2.37 C42.89 0.84, 46.68 -0.92, 50.34 -2.52" stroke="#1e1e1e" stroke-width="2" fill="none"></path></g><g transform="translate(886.6507884172274 789.4968473920226) rotate(0 24.5 -0.5)"><path d="M38.39 -6.17 C43.11 -3.71, 47.22 -4.24, 50.34 -2.52 M38.39 -6.17 C42.67 -4.76, 46.62 -3.56, 50.34 -2.52" stroke="#1e1e1e" stroke-width="2" fill="none"></path></g></g><mask></mask></g><g clip-path="url(#gS8ksGNsznpTNq_xVP7XA)"><g stroke-linecap="round"><g transform="translate(1185.9167884172275 788.9968473920226) rotate(0 24.25 -0.25)"><path d="M0.41 -0.31 C4.39 -0.35, 15.44 -0.24, 23.53 -0.25 C31.63 -0.26, 44.78 -0.35, 48.96 -0.36 M-0.04 0.72 C4.13 0.52, 16.38 -1.02, 24.53 -1.09 C32.68 -1.16, 44.81 0.08, 48.85 0.3" stroke="#1e1e1e" stroke-width="2" fill="none"></path></g><g transform="translate(1185.9167884172275 788.9968473920226) rotate(0 24.25 -0.25)"><path d="M37.06 3.62 C39.55 2.26, 43.02 2.49, 48.85 0.3 M37.06 3.62 C40.86 2.58, 44.44 1.31, 48.85 0.3" stroke="#1e1e1e" stroke-width="2" fill="none"></path></g><g transform="translate(1185.9167884172275 788.9968473920226) rotate(0 24.25 -0.25)"><path d="M37.68 -4.73 C40.03 -4.08, 43.34 -1.83, 48.85 0.3 M37.68 -4.73 C41.29 -3.06, 44.67 -1.62, 48.85 0.3" stroke="#1e1e1e" stroke-width="2" fill="none"></path></g></g><mask></mask></g><g clip-path="url(#gS8ksGNsznpTNq_xVP7XA)"><g stroke-linecap="round"><g transform="translate(1630.3507884172275 788.4968473920226) rotate(0 24.5 0)"><path d="M-1.02 0.54 C7.17 0.7, 41.63 0.33, 50.01 0.3 M0.65 -0.22 C8.69 -0.38, 41.6 -1.41, 49.59 -1.67" stroke="#1e1e1e" stroke-width="2" fill="none"></path></g><g transform="translate(1630.3507884172275 788.4968473920226) rotate(0 24.5 0)"><path d="M26.84 7.44 C36.31 5.9, 44.42 1.2, 49.59 -1.67 M26.84 7.44 C33.46 3.94, 41.34 1.23, 49.59 -1.67" stroke="#1e1e1e" stroke-width="2" fill="none"></path></g><g transform="translate(1630.3507884172275 788.4968473920226) rotate(0 24.5 0)"><path d="M26.31 -9.31 C35.89 -4.58, 44.19 -3.01, 49.59 -1.67 M26.31 -9.31 C33.09 -7.3, 41.15 -4.5, 49.59 -1.67" stroke="#1e1e1e" stroke-width="2" fill="none"></path></g></g><mask></mask></g><g clip-path="url(#gS8ksGNsznpTNq_xVP7XA)"><g stroke-linecap="round"><g transform="translate(1843.7337884172275 788.4968473920226) rotate(0 24.5 0)"><path d="M1.01 0.3 C9.38 0.26, 41.25 0.36, 49.23 0.35 M0.08 -0.59 C8.4 -1.05, 40.41 -1.97, 48.4 -1.59" stroke="#1e1e1e" stroke-width="2" fill="none"></path></g><g transform="translate(1843.7337884172275 788.4968473920226) rotate(0 24.5 0)"><path d="M25.36 6.72 C30.77 5.13, 35.82 2.77, 48.4 -1.59 M25.36 6.72 C32.3 4.01, 39.6 1.83, 48.4 -1.59" stroke="#1e1e1e" stroke-width="2" fill="none"></path></g><g transform="translate(1843.7337884172275 788.4968473920226) rotate(0 24.5 0)"><path d="M25.41 -10.04 C30.89 -8.03, 35.93 -6.77, 48.4 -1.59 M25.41 -10.04 C32.18 -7.41, 39.47 -4.25, 48.4 -1.59" stroke="#1e1e1e" stroke-width="2" fill="none"></path></g></g><mask></mask></g><g clip-path="url(#gS8ksGNsznpTNq_xVP7XA)"><g stroke-linecap="round"><g transform="translate(2049.3337884172274 788.4968473920226) rotate(0 24.5 0)"><path d="M0.23 0.35 C8.21 0.34, 40.94 0.37, 48.89 0.22 M-1.11 -0.51 C6.62 -0.94, 39.32 -1.95, 47.89 -1.78" stroke="#1e1e1e" stroke-width="2" fill="none"></path></g><g transform="translate(2049.3337884172274 788.4968473920226) rotate(0 24.5 0)"><path d="M24.95 6.81 C34.32 3.29, 42.91 -1.58, 47.89 -1.78 M24.95 6.81 C30.29 4.97, 36.81 2.31, 47.89 -1.78" stroke="#1e1e1e" stroke-width="2" fill="none"></path></g><g transform="translate(2049.3337884172274 788.4968473920226) rotate(0 24.5 0)"><path d="M24.79 -9.94 C34.26 -7.03, 42.92 -5.47, 47.89 -1.78 M24.79 -9.94 C30.09 -7.53, 36.65 -5.94, 47.89 -1.78" stroke="#1e1e1e" stroke-width="2" fill="none"></path></g></g><mask></mask></g><g clip-path="url(#gS8ksGNsznpTNq_xVP7XA)"><g stroke-linecap="round"><g transform="translate(2538.7507884172273 788.4968473920226) rotate(0 24.5 0)"><path d="M-0.11 0.22 C7.85 0.07, 39.86 -0.48, 47.95 -0.55 M-1.62 -0.7 C6.67 -0.73, 41.94 0.41, 50.11 0.69" stroke="#1e1e1e" stroke-width="2" fill="none"></path></g><g transform="translate(2538.7507884172273 788.4968473920226) rotate(0 24.5 0)"><path d="M26.82 8.31 C34.61 4.15, 40.75 2.51, 50.11 0.69 M26.82 8.31 C33.63 5.9, 39.77 4.68, 50.11 0.69" stroke="#1e1e1e" stroke-width="2" fill="none"></path></g><g transform="translate(2538.7507884172273 788.4968473920226) rotate(0 24.5 0)"><path d="M27.37 -8.44 C35.03 -7.25, 40.99 -3.54, 50.11 0.69 M27.37 -8.44 C33.93 -6.1, 39.92 -2.59, 50.11 0.69" stroke="#1e1e1e" stroke-width="2" fill="none"></path></g></g><mask></mask></g><g clip-path="url(#gS8ksGNsznpTNq_xVP7XA)"><g stroke-linecap="round"><g transform="translate(2925.7007884172276 788.9968473920226) rotate(0 24.75 -0.25)"><path d="M-1.05 -0.55 C7.12 -0.71, 40.61 -0.77, 48.93 -0.7 M0.6 1.77 C8.57 1.78, 39.81 1.4, 47.68 0.73" stroke="#1e1e1e" stroke-width="2" fill="none"></path></g><g transform="translate(2925.7007884172276 788.9968473920226) rotate(0 24.75 -0.25)"><path d="M24.81 10.19 C30.52 6.68, 37.76 3.84, 47.68 0.73 M24.81 10.19 C32.07 7.86, 39.2 4.84, 47.68 0.73" stroke="#1e1e1e" stroke-width="2" fill="none"></path></g><g transform="translate(2925.7007884172276 788.9968473920226) rotate(0 24.75 -0.25)"><path d="M24.07 -6.72 C30.03 -5.3, 37.49 -3.22, 47.68 0.73 M24.07 -6.72 C31.6 -3.47, 38.98 -0.91, 47.68 0.73" stroke="#1e1e1e" stroke-width="2" fill="none"></path></g></g><mask></mask></g><g clip-path="url(#gS8ksGNsznpTNq_xVP7XA)"><g mask="url(#mask-fmQBNeLJEHYVNJ_oDkaAs)" stroke-linecap="round"><g transform="translate(3181.6537884172276 775.4668473920228) rotate(0 229.16499999999996 -16.934999999999945)"><path d="M-0.57 -0.2 C38.78 -5.7, 158.53 -27.86, 235.05 -33.51 C311.57 -39.16, 421.38 -34.18, 458.54 -34.09 M1.33 -1.36 C41.17 -7.17, 161.34 -30.19, 237.44 -35.44 C313.53 -40.7, 421.11 -32.95, 457.88 -32.89" stroke="#1e1e1e" stroke-width="2" fill="none"></path></g><g transform="translate(3181.6537884172276 775.4668473920228) rotate(0 229.16499999999996 -16.934999999999945)"><path d="M434.13 -25.09 C438.87 -27.67, 444.86 -27.94, 457.88 -32.89 M434.13 -25.09 C440.15 -26.61, 446.81 -30.54, 457.88 -32.89" stroke="#1e1e1e" stroke-width="2" fill="none"></path></g><g transform="translate(3181.6537884172276 775.4668473920228) rotate(0 229.16499999999996 -16.934999999999945)"><path d="M434.67 -42.18 C439.22 -41.14, 445.09 -37.77, 457.88 -32.89 M434.67 -42.18 C440.49 -38.88, 447 -37.99, 457.88 -32.89" stroke="#1e1e1e" stroke-width="2" fill="none"></path></g></g><mask id="mask-fmQBNeLJEHYVNJ_oDkaAs"><rect x="0" y="0" fill="#fff" width="3740.9837884172275" height="909.3368473920228"></rect><rect x="3282.4483666642977" y="717.5968473920229" fill="#000" width="269.7708435058594" height="48" opacity="1"></rect></mask></g><g clip-path="url(#gS8ksGNsznpTNq_xVP7XA)"><g mask="url(#mask-iCbtLcFsSOhVDNiytUaAP)" stroke-linecap="round"><g transform="translate(3181.6537884172276 802.5268473920228) rotate(0 268.6234999999999 16.434999999999945)"><path d="M-0.63 0.36 C38.78 5.84, 146.3 27.08, 235.89 32.65 C325.48 38.22, 486.83 33.56, 536.92 33.77 M1.25 -0.49 C40.57 5.18, 145.93 28.67, 235.05 34.07 C324.17 39.47, 485.78 32.27, 535.98 31.9" stroke="#1e1e1e" stroke-width="2" fill="none"></path></g><g transform="translate(3181.6537884172276 802.5268473920228) rotate(0 268.6234999999999 16.434999999999945)"><path d="M512.69 41 C519.18 39.18, 524.09 35.98, 535.98 31.9 M512.69 41 C520.76 36.51, 529.52 33.67, 535.98 31.9" stroke="#1e1e1e" stroke-width="2" fill="none"></path></g><g transform="translate(3181.6537884172276 802.5268473920228) rotate(0 268.6234999999999 16.434999999999945)"><path d="M512.29 23.91 C518.85 26.39, 523.86 27.51, 535.98 31.9 M512.29 23.91 C520.39 25.83, 529.3 29.4, 535.98 31.9" stroke="#1e1e1e" stroke-width="2" fill="none"></path></g></g><mask id="mask-iCbtLcFsSOhVDNiytUaAP"><rect x="0" y="0" fill="#fff" width="3819.9007884172274" height="935.3968473920227"></rect><rect x="3253.125460170157" y="823.3968473920227" fill="#000" width="328.4166564941406" height="24" opacity="1"></rect></mask></g><g clip-path="url(#gS8ksGNsznpTNq_xVP7XA)"><g stroke-linecap="round"><g transform="translate(4163.0507884172275 742.0968473920229) rotate(0 41.93299999999999 6.016499999999951)"><path d="M0.21 -0.22 C14.24 1.88, 69.73 10.72, 83.54 12.93 M-1.14 -1.38 C12.75 0.36, 67.98 9.18, 82.41 11.29" stroke="#1e1e1e" stroke-width="2" fill="none"></path></g><g transform="translate(4163.0507884172275 742.0968473920229) rotate(0 41.93299999999999 6.016499999999951)"><path d="M57.9 16.18 C63.59 14.38, 71.54 12.32, 82.41 11.29 M57.9 16.18 C66.67 14.21, 77.28 12.33, 82.41 11.29" stroke="#1e1e1e" stroke-width="2" fill="none"></path></g><g transform="translate(4163.0507884172275 742.0968473920229) rotate(0 41.93299999999999 6.016499999999951)"><path d="M60.49 -0.72 C65.59 1.67, 72.89 3.8, 82.41 11.29 M60.49 -0.72 C68.14 3.79, 77.75 8.43, 82.41 11.29" stroke="#1e1e1e" stroke-width="2" fill="none"></path></g></g><mask></mask></g><g clip-path="url(#gS8ksGNsznpTNq_xVP7XA)"><g stroke-linecap="round"><g transform="translate(4084.1337884172276 834.8968473920227) rotate(0 81.39149999999995 -5.517000000000053)"><path d="M-0.33 0.9 C26.63 -0.73, 134.91 -7.85, 161.95 -10.01 M1.7 0.33 C29.02 -1.6, 137.12 -9.66, 164.22 -11.6" stroke="#1e1e1e" stroke-width="2" fill="none"></path></g><g transform="translate(4084.1337884172276 834.8968473920227) rotate(0 81.39149999999995 -5.517000000000053)"><path d="M141.42 -1.36 C150.18 -5.93, 157.62 -9.25, 164.22 -11.6 M141.42 -1.36 C146.79 -3.75, 150.62 -6.46, 164.22 -11.6" stroke="#1e1e1e" stroke-width="2" fill="none"></path></g><g transform="translate(4084.1337884172276 834.8968473920227) rotate(0 81.39149999999995 -5.517000000000053)"><path d="M140.17 -18.41 C149.29 -17.57, 157.13 -15.48, 164.22 -11.6 M140.17 -18.41 C145.69 -17.18, 149.78 -16.27, 164.22 -11.6" stroke="#1e1e1e" stroke-width="2" fill="none"></path></g></g><mask></mask></g><g clip-path="url(#gS8ksGNsznpTNq_xVP7XA)"><g mask="url(#mask-ZVcVWywUM_EWkA7y-w76C)" stroke-linecap="round"><g transform="translate(4586.707788417228 767.8538473920225) rotate(0 237.69650000000001 -13.128500000000031)"><path d="M-0.83 1.02 C34.65 -3.68, 133.31 -22.7, 212.54 -27.31 C291.77 -31.92, 430.64 -26.74, 474.54 -26.62 M0.93 0.51 C36.81 -4.16, 135.45 -21.99, 214.8 -26.33 C294.14 -30.66, 433.38 -25.6, 476.99 -25.5" stroke="#1e1e1e" stroke-width="2" fill="none"></path></g><g transform="translate(4586.707788417228 767.8538473920225) rotate(0 237.69650000000001 -13.128500000000031)"><path d="M453.36 -17.35 C461.44 -20.86, 464.42 -23.04, 476.99 -25.5 M453.36 -17.35 C459.13 -20.3, 466.64 -20.8, 476.99 -25.5" stroke="#1e1e1e" stroke-width="2" fill="none"></path></g><g transform="translate(4586.707788417228 767.8538473920225) rotate(0 237.69650000000001 -13.128500000000031)"><path d="M453.65 -34.45 C461.78 -33.3, 464.68 -30.83, 476.99 -25.5 M453.65 -34.45 C459.43 -32.79, 466.86 -28.69, 476.99 -25.5" stroke="#1e1e1e" stroke-width="2" fill="none"></path></g></g><mask id="mask-ZVcVWywUM_EWkA7y-w76C"><rect x="0" y="0" fill="#fff" width="5163.100788417228" height="894.1108473920226"></rect><rect x="4700.427874293692" y="729.5968473920225" fill="#000" width="199.3958282470703" height="24" opacity="1"></rect></mask></g><g clip-path="url(#gS8ksGNsznpTNq_xVP7XA)"><g mask="url(#mask-aVQSuOEE0KhToaumBfr2n)" stroke-linecap="round"><g transform="translate(4586.707788417228 810.1398473920226) rotate(0 203.0965000000001 12.628500000000031)"><path d="M-0.87 -1.05 C34.69 2.92, 144.63 20.56, 212.57 24.89 C280.51 29.22, 374.59 25.01, 406.75 24.91 M0.87 1.01 C36.89 5.68, 147.27 22.06, 214.83 26.24 C282.4 30.41, 374.51 26.27, 406.28 26.04" stroke="#1e1e1e" stroke-width="2" fill="none"></path></g><g transform="translate(4586.707788417228 810.1398473920226) rotate(0 203.0965000000001 12.628500000000031)"><path d="M382.98 35.1 C386.51 31.77, 393.03 32.02, 406.28 26.04 M382.98 35.1 C389.92 33.71, 395.67 30.57, 406.28 26.04" stroke="#1e1e1e" stroke-width="2" fill="none"></path></g><g transform="translate(4586.707788417228 810.1398473920226) rotate(0 203.0965000000001 12.628500000000031)"><path d="M382.6 18.01 C386.37 18.61, 392.98 22.81, 406.28 26.04 M382.6 18.01 C389.55 21.25, 395.4 22.74, 406.28 26.04" stroke="#1e1e1e" stroke-width="2" fill="none"></path></g></g><mask id="mask-aVQSuOEE0KhToaumBfr2n"><rect x="0" y="0" fill="#fff" width="5093.900788417228" height="935.3968473920226"></rect><rect x="4659.375788417227" y="811.3968473920227" fill="#000" width="281.5" height="48" opacity="1"></rect></mask></g><g clip-path="url(#gS8ksGNsznpTNq_xVP7XA)"><g stroke-linecap="round"><g transform="translate(5385.950788417227 742.0968473920229) rotate(0 77.87750000000005 4.6720000000000255)"><path d="M-0.85 -0.37 C25.35 1.31, 130.32 7.54, 156.31 8.99 M0.9 -1.6 C27.07 0.34, 130.14 8.56, 155.66 10.35" stroke="#1e1e1e" stroke-width="2" fill="none"></path></g><g transform="translate(5385.950788417227 742.0968473920229) rotate(0 77.87750000000005 4.6720000000000255)"><path d="M131.59 17.1 C136.5 16.67, 142 13.1, 155.66 10.35 M131.59 17.1 C136.81 15.61, 141.87 12.98, 155.66 10.35" stroke="#1e1e1e" stroke-width="2" fill="none"></path></g><g transform="translate(5385.950788417227 742.0968473920229) rotate(0 77.87750000000005 4.6720000000000255)"><path d="M132.88 0.05 C137.35 3.48, 142.55 3.78, 155.66 10.35 M132.88 0.05 C137.92 2.28, 142.7 3.36, 155.66 10.35" stroke="#1e1e1e" stroke-width="2" fill="none"></path></g></g><mask></mask></g><g clip-path="url(#gS8ksGNsznpTNq_xVP7XA)"><g stroke-linecap="round"><g transform="translate(5455.150788417228 834.8968473920227) rotate(0 43.27749999999969 -4.1724999999999)"><path d="M0.56 -0.35 C15.01 -1.84, 71.44 -8.17, 85.89 -9.33 M-0.61 -1.58 C14.31 -2.92, 73.68 -7.06, 88.25 -8.31" stroke="#1e1e1e" stroke-width="2" fill="none"></path></g><g transform="translate(5455.150788417228 834.8968473920227) rotate(0 43.27749999999969 -4.1724999999999)"><path d="M65.49 2.01 C70.15 -1.57, 74.31 -1.66, 88.25 -8.31 M65.49 2.01 C74.14 -3, 83.31 -6.35, 88.25 -8.31" stroke="#1e1e1e" stroke-width="2" fill="none"></path></g><g transform="translate(5455.150788417228 834.8968473920227) rotate(0 43.27749999999969 -4.1724999999999)"><path d="M64.18 -15.04 C69.09 -14.72, 73.54 -10.9, 88.25 -8.31 M64.18 -15.04 C73.34 -13.45, 83.02 -10.2, 88.25 -8.31" stroke="#1e1e1e" stroke-width="2" fill="none"></path></g></g><mask></mask></g><g clip-path="url(#gS8ksGNsznpTNq_xVP7XA)"><g stroke-linecap="round"><g transform="translate(6046.933788417227 789.4968473920226) rotate(0 24.5 -0.5)"><path d="M-0.66 -0.99 C3.36 -0.92, 16.42 0.01, 24.7 0.04 C32.98 0.08, 45.01 -0.41, 49.03 -0.78 M1.19 1.11 C5.07 0.89, 16.27 -1.45, 24.12 -1.53 C31.97 -1.61, 44.13 0.68, 48.27 0.66" stroke="#1e1e1e" stroke-width="2" fill="none"></path></g><g transform="translate(6046.933788417227 789.4968473920226) rotate(0 24.5 -0.5)"><path d="M36.21 3.92 C39.37 3.58, 45.66 1.75, 48.27 0.66 M36.21 3.92 C40.18 2.79, 43.54 2.37, 48.27 0.66" stroke="#1e1e1e" stroke-width="2" fill="none"></path></g><g transform="translate(6046.933788417227 789.4968473920226) rotate(0 24.5 -0.5)"><path d="M36.93 -4.6 C39.82 -1.99, 45.86 -0.87, 48.27 0.66 M36.93 -4.6 C40.67 -3.02, 43.79 -0.73, 48.27 0.66" stroke="#1e1e1e" stroke-width="2" fill="none"></path></g></g><mask></mask></g><g clip-path="url(#gS8ksGNsznpTNq_xVP7XA)"><g stroke-linecap="round"><g transform="translate(6482.516788417228 788.9968473920226) rotate(0 24.25 -0.25)"><path d="M0.32 0.48 C4.37 0.49, 16 -0.15, 24.01 -0.4 C32.03 -0.65, 44.32 -0.99, 48.42 -1.03 M-0.18 0.25 C3.83 0.12, 15.55 -1.15, 23.59 -1.31 C31.62 -1.47, 43.83 -0.88, 48.02 -0.71" stroke="#1e1e1e" stroke-width="2" fill="none"></path></g><g transform="translate(6482.516788417228 788.9968473920226) rotate(0 24.25 -0.25)"><path d="M36.35 2.99 C39.75 2.06, 42.19 1.05, 48.02 -0.71 M36.35 2.99 C38.53 2.46, 41.12 1.71, 48.02 -0.71" stroke="#1e1e1e" stroke-width="2" fill="none"></path></g><g transform="translate(6482.516788417228 788.9968473920226) rotate(0 24.25 -0.25)"><path d="M36.7 -5.38 C39.98 -4.26, 42.34 -3.22, 48.02 -0.71 M36.7 -5.38 C38.82 -4.21, 41.33 -3.27, 48.02 -0.71" stroke="#1e1e1e" stroke-width="2" fill="none"></path></g></g><mask></mask></g><g clip-path="url(#gS8ksGNsznpTNq_xVP7XA)"><g transform="translate(242.01087086046482 776.496509989679) rotate(0 29.32291603088379 12)"><text x="29.32291603088379" y="0" font-family="Cascadia, Segoe UI Emoji" font-size="20px" fill="#1e1e1e" text-anchor="middle" style="white-space: pre;" direction="ltr" dominant-baseline="text-before-edge">Start</text></g></g><g clip-path="url(#gS8ksGNsznpTNq_xVP7XA)"><g transform="translate(515.487946437247 752.6298489179017) rotate(0 105.5625 36)"><text x="105.5625" y="0" font-family="Cascadia, Segoe UI Emoji" font-size="20px" fill="#1e1e1e" text-anchor="middle" style="white-space: pre;" direction="ltr" dominant-baseline="text-before-edge">Introduction with </text><text x="105.5625" y="24" font-family="Cascadia, Segoe UI Emoji" font-size="20px" fill="#1e1e1e" text-anchor="middle" style="white-space: pre;" direction="ltr" dominant-baseline="text-before-edge">ASCII Art &amp; Chalk </text><text x="105.5625" y="48" font-family="Cascadia, Segoe UI Emoji" font-size="20px" fill="#1e1e1e" text-anchor="middle" style="white-space: pre;" direction="ltr" dominant-baseline="text-before-edge">Colors</text></g></g><g clip-path="url(#gS8ksGNsznpTNq_xVP7XA)"><g transform="translate(1007.6858758195713 752.6798443402649) rotate(0 52.78125 36)"><text x="52.78125" y="0" font-family="Cascadia, Segoe UI Emoji" font-size="20px" fill="#1e1e1e" text-anchor="middle" style="white-space: pre;" direction="ltr" dominant-baseline="text-before-edge">Choose </text><text x="52.78125" y="24" font-family="Cascadia, Segoe UI Emoji" font-size="20px" fill="#1e1e1e" text-anchor="middle" style="white-space: pre;" direction="ltr" dominant-baseline="text-before-edge">Difficult</text><text x="52.78125" y="48" font-family="Cascadia, Segoe UI Emoji" font-size="20px" fill="#1e1e1e" text-anchor="middle" style="white-space: pre;" direction="ltr" dominant-baseline="text-before-edge">y</text></g></g><g clip-path="url(#gS8ksGNsznpTNq_xVP7XA)"><g transform="translate(1285.7692193254306 771.5965084638001) rotate(0 146.6145782470703 24)"><text x="146.6145782470703" y="0" font-family="Cascadia, Segoe UI Emoji" font-size="20px" fill="#1e1e1e" text-anchor="middle" style="white-space: pre;" direction="ltr" dominant-baseline="text-before-edge">Enter First Scene/Puzzle </text><text x="146.6145782470703" y="24" font-family="Cascadia, Segoe UI Emoji" font-size="20px" fill="#1e1e1e" text-anchor="middle" style="white-space: pre;" direction="ltr" dominant-baseline="text-before-edge">Dialogue</text></g></g><g clip-path="url(#gS8ksGNsznpTNq_xVP7XA)"><g transform="translate(1691.1671380266025 776.496509989679) rotate(0 70.375 12)"><text x="70.375" y="0" font-family="Cascadia, Segoe UI Emoji" font-size="20px" fill="#1e1e1e" text-anchor="middle" style="white-space: pre;" direction="ltr" dominant-baseline="text-before-edge">Ask for Name</text></g></g><g clip-path="url(#gS8ksGNsznpTNq_xVP7XA)"><g transform="translate(1924.117138789542 771.5965084638001) rotate(0 46.91666793823242 24)"><text x="46.91666793823242" y="0" font-family="Cascadia, Segoe UI Emoji" font-size="20px" fill="#1e1e1e" text-anchor="middle" style="white-space: pre;" direction="ltr" dominant-baseline="text-before-edge">Ask for </text><text x="46.91666793823242" y="24" font-family="Cascadia, Segoe UI Emoji" font-size="20px" fill="#1e1e1e" text-anchor="middle" style="white-space: pre;" direction="ltr" dominant-baseline="text-before-edge">Class</text></g></g><g clip-path="url(#gS8ksGNsznpTNq_xVP7XA)"><g transform="translate(2119.1463250383213 776.496509989679) rotate(0 199.3958282470703 12)"><text x="199.3958282470703" y="0" font-family="Cascadia, Segoe UI Emoji" font-size="20px" fill="#1e1e1e" text-anchor="middle" style="white-space: pre;" direction="ltr" dominant-baseline="text-before-edge">Room 1 Entry: The Leaked Documents</text></g></g><g clip-path="url(#gS8ksGNsznpTNq_xVP7XA)"><g transform="translate(2598.3817528947666 776.496509989679) rotate(0 158.34375 12)"><text x="158.34375" y="0" font-family="Cascadia, Segoe UI Emoji" font-size="20px" fill="#1e1e1e" text-anchor="middle" style="white-space: pre;" direction="ltr" dominant-baseline="text-before-edge">Puzzle 1: Decipher The Code</text></g></g><g clip-path="url(#gS8ksGNsznpTNq_xVP7XA)"><g transform="translate(3037.5296754106357 752.2506756390931) rotate(0 46.91666793823242 36)"><text x="46.91666793823242" y="0" font-family="Cascadia, Segoe UI Emoji" font-size="20px" fill="#1e1e1e" text-anchor="middle" style="white-space: pre;" direction="ltr" dominant-baseline="text-before-edge">Path </text><text x="46.91666793823242" y="24" font-family="Cascadia, Segoe UI Emoji" font-size="20px" fill="#1e1e1e" text-anchor="middle" style="white-space: pre;" direction="ltr" dominant-baseline="text-before-edge">Selectio</text><text x="46.91666793823242" y="48" font-family="Cascadia, Segoe UI Emoji" font-size="20px" fill="#1e1e1e" text-anchor="middle" style="white-space: pre;" direction="ltr" dominant-baseline="text-before-edge">n</text></g></g><g clip-path="url(#gS8ksGNsznpTNq_xVP7XA)"><g transform="translate(3655.204659388907 729.5965084638001) rotate(0 246.3125 12)"><text x="246.3125" y="0" font-family="Cascadia, Segoe UI Emoji" font-size="20px" fill="#1e1e1e" text-anchor="middle" style="white-space: pre;" direction="ltr" dominant-baseline="text-before-edge">Puzzle 2: Hack into the Government Network</text></g></g><g clip-path="url(#gS8ksGNsznpTNq_xVP7XA)"><g transform="translate(3766.6317376359775 818.496509989679) rotate(0 134.8854217529297 24)"><text x="134.8854217529297" y="0" font-family="Cascadia, Segoe UI Emoji" font-size="20px" fill="#1e1e1e" text-anchor="middle" style="white-space: pre;" direction="ltr" dominant-baseline="text-before-edge">Puzzle 3: Alien Signal </text><text x="134.8854217529297" y="24" font-family="Cascadia, Segoe UI Emoji" font-size="20px" fill="#1e1e1e" text-anchor="middle" style="white-space: pre;" direction="ltr" dominant-baseline="text-before-edge">Decoding</text></g></g><g clip-path="url(#gS8ksGNsznpTNq_xVP7XA)"><g transform="translate(4321.656723903067 764.4215206708313) rotate(0 87.96875 24)"><text x="87.96875" y="0" font-family="Cascadia, Segoe UI Emoji" font-size="20px" fill="#1e1e1e" text-anchor="middle" style="white-space: pre;" direction="ltr" dominant-baseline="text-before-edge">Decision Point </text><text x="87.96875" y="24" font-family="Cascadia, Segoe UI Emoji" font-size="20px" fill="#1e1e1e" text-anchor="middle" style="white-space: pre;" direction="ltr" dominant-baseline="text-before-edge">for Next Action</text></g></g><g clip-path="url(#gS8ksGNsznpTNq_xVP7XA)"><g transform="translate(5089.1400384172275 724.6965069379212) rotate(0 134.8854217529297 24)"><text x="134.8854217529297" y="0" font-family="Cascadia, Segoe UI Emoji" font-size="20px" fill="#1e1e1e" text-anchor="middle" style="white-space: pre;" direction="ltr" dominant-baseline="text-before-edge">Puzzle 4: Synthesize a </text><text x="134.8854217529297" y="24" font-family="Cascadia, Segoe UI Emoji" font-size="20px" fill="#1e1e1e" text-anchor="middle" style="white-space: pre;" direction="ltr" dominant-baseline="text-before-edge">Cure</text></g></g><g clip-path="url(#gS8ksGNsznpTNq_xVP7XA)"><g transform="translate(5001.1712884172275 823.3965115155579) rotate(0 222.8541717529297 12)"><text x="222.8541717529297" y="0" font-family="Cascadia, Segoe UI Emoji" font-size="20px" fill="#1e1e1e" text-anchor="middle" style="white-space: pre;" direction="ltr" dominant-baseline="text-before-edge">Puzzle 5: Navigate the Quarantine Zone</text></g></g><g clip-path="url(#gS8ksGNsznpTNq_xVP7XA)"><g transform="translate(5669.908783839591 752.6756863202454) rotate(0 105.5625 36)"><text x="105.5625" y="0" font-family="Cascadia, Segoe UI Emoji" font-size="20px" fill="#1e1e1e" text-anchor="middle" style="white-space: pre;" direction="ltr" dominant-baseline="text-before-edge">Convergence and </text><text x="105.5625" y="24" font-family="Cascadia, Segoe UI Emoji" font-size="20px" fill="#1e1e1e" text-anchor="middle" style="white-space: pre;" direction="ltr" dominant-baseline="text-before-edge">Climax: The Final </text><text x="105.5625" y="48" font-family="Cascadia, Segoe UI Emoji" font-size="20px" fill="#1e1e1e" text-anchor="middle" style="white-space: pre;" direction="ltr" dominant-baseline="text-before-edge">Mission</text></g></g><g clip-path="url(#gS8ksGNsznpTNq_xVP7XA)"><g transform="translate(6236.0483559831455 752.6006893720032) rotate(0 52.78125 36)"><text x="52.78125" y="0" font-family="Cascadia, Segoe UI Emoji" font-size="20px" fill="#1e1e1e" text-anchor="middle" style="white-space: pre;" direction="ltr" dominant-baseline="text-before-edge">Endgame: </text><text x="52.78125" y="24" font-family="Cascadia, Segoe UI Emoji" font-size="20px" fill="#1e1e1e" text-anchor="middle" style="white-space: pre;" direction="ltr" dominant-baseline="text-before-edge">Multiple </text><text x="52.78125" y="48" font-family="Cascadia, Segoe UI Emoji" font-size="20px" fill="#1e1e1e" text-anchor="middle" style="white-space: pre;" direction="ltr" dominant-baseline="text-before-edge">Outcomes</text></g></g><g clip-path="url(#gS8ksGNsznpTNq_xVP7XA)"><g transform="translate(6566.712929652579 771.5965084638001) rotate(0 387.0625 24)"><text x="387.0625" y="0" font-family="Cascadia, Segoe UI Emoji" font-size="20px" fill="#1e1e1e" text-anchor="middle" style="white-space: pre;" direction="ltr" dominant-baseline="text-before-edge">Final Choice: A pivotal decision that defines the game's ultimate </text><text x="387.0625" y="24" font-family="Cascadia, Segoe UI Emoji" font-size="20px" fill="#1e1e1e" text-anchor="middle" style="white-space: pre;" direction="ltr" dominant-baseline="text-before-edge">outcome</text></g></g><g clip-path="url(#gS8ksGNsznpTNq_xVP7XA)"><g transform="translate(3282.4483666642977 717.5968473920229) rotate(0 128.18789785414947 39.13397060339571)"><text x="134.8854217529297" y="0" font-family="Cascadia, Segoe UI Emoji" font-size="20px" fill="#1e1e1e" text-anchor="middle" style="white-space: pre;" direction="ltr" dominant-baseline="text-before-edge">Investigate Government </text><text x="134.8854217529297" y="24" font-family="Cascadia, Segoe UI Emoji" font-size="20px" fill="#1e1e1e" text-anchor="middle" style="white-space: pre;" direction="ltr" dominant-baseline="text-before-edge">Conspiracy</text></g></g><g clip-path="url(#gS8ksGNsznpTNq_xVP7XA)"><g transform="translate(3253.125460170157 823.3968473920227) rotate(0 196.67359144812832 -3.080266195876902)"><text x="164.2083282470703" y="0" font-family="Cascadia, Segoe UI Emoji" font-size="20px" fill="#1e1e1e" text-anchor="middle" style="white-space: pre;" direction="ltr" dominant-baseline="text-before-edge">Delve into Alien Involvement</text></g></g><g clip-path="url(#gS8ksGNsznpTNq_xVP7XA)"><g transform="translate(4700.427874293692 729.5968473920225) rotate(0 124.35838426788268 24.159351331923062)"><text x="99.69791412353516" y="0" font-family="Cascadia, Segoe UI Emoji" font-size="20px" fill="#1e1e1e" text-anchor="middle" style="white-space: pre;" direction="ltr" dominant-baseline="text-before-edge">Synthesize a Cure</text></g></g><g clip-path="url(#gS8ksGNsznpTNq_xVP7XA)"><g transform="translate(4659.375788417227 811.3968473920227) rotate(0 130.26985605841924 12.262017763346421)"><text x="140.75" y="0" font-family="Cascadia, Segoe UI Emoji" font-size="20px" fill="#1e1e1e" text-anchor="middle" style="white-space: pre;" direction="ltr" dominant-baseline="text-before-edge">Navigate the Quarantine </text><text x="140.75" y="24" font-family="Cascadia, Segoe UI Emoji" font-size="20px" fill="#1e1e1e" text-anchor="middle" style="white-space: pre;" direction="ltr" dominant-baseline="text-before-edge">Zone</text></g></g><g clip-path="url(#gS8ksGNsznpTNq_xVP7XA)"><g transform="translate(1293.5173444477437 241.20619605569027) rotate(0 284.5104064941406 20.700000000000045)"><text x="0" y="0" font-family="Helvetica, Segoe UI Emoji" font-size="36px" fill="#868e96" text-anchor="start" style="white-space: pre;" direction="ltr" dominant-baseline="text-before-edge">White or light gray for narrative text.</text></g></g><g clip-path="url(#gS8ksGNsznpTNq_xVP7XA)"><g transform="translate(1293.5173444477437 275.20619605569027) rotate(0 188.7291717529297 20.700000000000045)"><text x="0" y="0" font-family="Helvetica, Segoe UI Emoji" font-size="36px" fill="#0ff" text-anchor="start" style="white-space: pre;" direction="ltr" dominant-baseline="text-before-edge">Cyan for NPC dialogue.</text></g></g><g clip-path="url(#gS8ksGNsznpTNq_xVP7XA)"><g transform="translate(1293.5173444477437 309.20619605569027) rotate(0 200.6979217529297 20.700000000000045)"><text x="0" y="0" font-family="Helvetica, Segoe UI Emoji" font-size="36px" fill="#2f9e44" text-anchor="start" style="white-space: pre;" direction="ltr" dominant-baseline="text-before-edge">Green for player choices.</text></g></g><g clip-path="url(#gS8ksGNsznpTNq_xVP7XA)"><g transform="translate(1293.5173444477437 343.20619605569027) rotate(0 370.8020935058594 20.700000000000045)"><text x="0" y="0" font-family="Helvetica, Segoe UI Emoji" font-size="36px" fill="#ffd43b" text-anchor="start" style="white-space: pre;" direction="ltr" dominant-baseline="text-before-edge">Yellow for puzzle descriptions and instructions.</text></g></g><g clip-path="url(#gS8ksGNsznpTNq_xVP7XA)"><g transform="translate(1293.5173444477437 377.20619605569027) rotate(0 411.3854064941406 20.700000000000045)"><text x="0" y="0" font-family="Helvetica, Segoe UI Emoji" font-size="36px" fill="#66ff00" text-anchor="start" style="white-space: pre;" direction="ltr" dominant-baseline="text-before-edge">Bright green for correct answers/successful actions.</text></g></g><g clip-path="url(#gS8ksGNsznpTNq_xVP7XA)"><g transform="translate(1293.5173444477437 411.20619605569027) rotate(0 286.5520935058594 20.700000000000045)"><text x="0" y="0" font-family="Helvetica, Segoe UI Emoji" font-size="36px" fill="#e03131" text-anchor="start" style="white-space: pre;" direction="ltr" dominant-baseline="text-before-edge">Red for incorrect answers/warnings.</text></g></g><g clip-path="url(#gS8ksGNsznpTNq_xVP7XA)"><g transform="translate(1293.5173444477437 445.20619605569027) rotate(0 143.78125 20.700000000000045)"><text x="0" y="0" font-family="Helvetica, Segoe UI Emoji" font-size="36px" fill="#ff00ff" text-anchor="start" style="white-space: pre;" direction="ltr" dominant-baseline="text-before-edge">Magenta for hints.</text></g></g><g clip-path="url(#gS8ksGNsznpTNq_xVP7XA)"><g transform="translate(1293.5173444477437 479.20619605569027) rotate(0 215.6875 20.700000000000045)"><text x="0" y="0" font-family="Helvetica, Segoe UI Emoji" font-size="36px" fill="#1971c2" text-anchor="start" style="white-space: pre;" direction="ltr" dominant-baseline="text-before-edge">Blue for system messages.</text></g></g><g clip-path="url(#gS8ksGNsznpTNq_xVP7XA)"><g transform="translate(1293.5173444477437 513.2061960556903) rotate(0 433.3333435058594 20.700000000000045)"><text x="0" y="0" font-family="Helvetica, Segoe UI Emoji" font-size="36px" fill="#183fea" text-anchor="start" style="white-space: pre;" direction="ltr" dominant-baseline="text-before-edge">Bright blue or bold for character names and key terms.</text></g></g></svg>